<svg xmlns="http://www.w3.org/2000/svg" fill="none" viewBox="0 0 24 24"><path fill="#2DA4CA" d="M12 24a12 12 0 1 0 0-24 12 12 0 0 0 0 24Z"/><path fill="#97EFAB" d="M24 12c0-2.4-.7-4.65-1.93-6.53 0 0-.68 1-.56 1.64.13.65.89.7.81 1.17-.08.47-.63-.14-1.32 1.1-.69 1.25-.34 2.96.64 3.1C22.63 12.6 24 12 24 12ZM15.15.42c1.4.38 2.7 1 3.84 1.82 0 0-1.4-.23-1.92.25-.53.47-1.3 1.58-1.92 0-.62-1.59 0-2.07 0-2.07ZM2.98 4.09C5.18 1.59 8.4 0 12 0c0 0-.81.5.73 1.33 1.54.83.83 1.22.51 1.48-.32.25-.88-.52-1.24-1.03-.36-.52-1.93-1.3-3.13-.88-1.2.43-2.23.75-2.06 1.14.18.4 2.23-.37 3-.33.78.05.52.52-.21 1.08-.73.55-.81 1.24-.04 1.67.77.43 1.71.47 1.93.21.21-.26-.39-1.93 1.07-1.2C14 4.2 15.2 4.63 14 5.7s-2.57 2.27-2.61 2.96c-.04.68.43 1.24.17 1.28-.26.05-.5-.28-.66-.51-.17-.24-.97-.32-1.35-.17-.39.15-1.12.73-.71 1.28.4.56.96.3 1.52.56.56.26 1.08 1.24.97 1.46-.1.22-.58-.06-.97-.82-.39-.75-1.12-.25-1.63-.38-.51-.13-.9-.22-1.41-1.12-.52-.9-1.58-1.15-2.02-1.67-1.23-1.49-1.14-2.61-1.4-3.13-.26-.51-.92-1.35-.92-1.35Zm10.18 8.08s1.28.13 1.93.69c.64.55.72.77 1.71.98.99.22 1.41.77.77 1.85a21.45 21.45 0 0 1-2.36 3.3c-.55.51-1.24.94-1.5 1.8-.25.85-.34 1.37.22 1.71 0 0-.3.73-.99-.21-.68-.95-.13-2.06 0-2.7.13-.65.47-2.58.26-3.05-.21-.47-1.2-.77-1.46-1.75-.25-.99.2-2.9 1.42-2.62Z"/><path fill="#414141" d="M3.51 3.51A12 12 0 1 1 20.5 20.5s-.25-5.82-4.96-11.88C10.83 2.54 3.51 3.5 3.51 3.5Z" opacity=".37"/></svg>
